<?xml version="1.0" encoding="UTF-8" standalone="no"?><!-- Generator: Gravit.io --><svg xmlns="http://www.w3.org/2000/svg" xmlns:xlink="http://www.w3.org/1999/xlink" style="isolation:isolate" viewBox="0 0 511.999 511.999" width="511.999pt" height="511.999pt"><defs><clipPath id="_clipPath_m3CPSmFShiIlgQnIhX00YOZPJBGhtuf7"><rect width="511.999" height="511.999"/></clipPath></defs><g clip-path="url(#_clipPath_m3CPSmFShiIlgQnIhX00YOZPJBGhtuf7)"><g><g><path d=" M 372.29 50.758 L 28.831 50.758 C 12.933 50.758 0 63.691 0 79.588 L 0 285.644 C 0 301.541 12.933 314.475 28.831 314.475 L 51.102 314.475 L 51.102 391.185 C 51.102 396.069 54.044 400.474 58.558 402.344 C 60.052 402.964 61.622 403.264 63.178 403.264 C 66.322 403.264 69.41 402.036 71.721 399.726 L 156.972 314.476 L 174.076 314.476 C 180.747 314.476 186.154 309.069 186.154 302.398 C 186.154 295.726 180.745 290.319 174.076 290.319 C 174.076 290.319 151.386 290.335 151.149 290.359 C 148.337 290.55 145.577 291.708 143.427 293.857 L 75.258 362.026 C 75.258 362.026 75.237 301.634 75.198 301.321 C 74.653 295.155 69.481 290.319 63.174 290.319 L 28.831 290.319 C 26.253 290.319 24.157 288.222 24.157 285.645 L 24.157 79.588 C 24.157 77.01 26.254 74.914 28.831 74.914 L 372.29 74.914 C 374.868 74.914 376.964 77.011 376.964 79.588 L 376.964 158.643 C 376.964 165.314 382.373 170.721 389.042 170.721 C 395.711 170.721 401.12 165.314 401.12 158.643 L 401.12 79.588 C 401.12 63.691 388.187 50.758 372.29 50.758 Z " fill="rgb(255,255,255)"/></g></g><g><g><path d=" M 483.169 198.492 L 242.754 198.492 C 226.857 198.492 213.923 211.425 213.923 227.323 L 213.923 367.893 C 213.923 383.79 226.856 396.724 242.754 396.724 L 393.268 396.724 L 454.248 457.704 C 456.559 460.015 459.648 461.242 462.791 461.242 C 464.347 461.242 465.917 460.941 467.411 460.322 C 471.923 458.452 474.867 454.049 474.867 449.163 L 474.867 396.723 L 483.168 396.723 C 499.065 396.723 511.999 383.79 511.999 367.892 L 511.999 227.322 C 512 211.425 499.067 198.492 483.169 198.492 Z  M 487.844 367.893 C 487.844 370.47 485.747 372.567 483.17 372.567 L 462.794 372.567 C 456.438 372.567 451.24 377.479 450.763 383.714 C 450.732 383.978 450.712 420.004 450.712 420.004 L 406.858 376.149 C 406.812 376.103 406.764 376.06 406.718 376.014 C 406.546 375.846 406.383 375.7 406.229 375.569 C 404.103 373.705 401.326 372.566 398.278 372.566 L 242.754 372.566 C 240.176 372.566 238.08 370.469 238.08 367.892 L 238.08 227.322 C 238.08 224.744 240.177 222.648 242.754 222.648 L 483.17 222.648 C 485.747 222.648 487.844 224.745 487.844 227.322 L 487.844 367.893 L 487.844 367.893 Z " fill="rgb(255,255,255)"/></g></g><g><g><path d=" M 310.472 130.611 C 310.472 130.611 90.65 130.611 90.65 130.611 C 83.98 130.611 78.572 136.018 78.572 142.689 C 78.572 149.36 83.981 154.767 90.65 154.767 L 310.472 154.767 C 317.142 154.767 322.55 149.36 322.55 142.689 C 322.55 136.018 317.142 130.611 310.472 130.611 Z " fill="rgb(255,255,255)"/></g></g><g><g><path d=" M 174.075 210.465 L 90.65 210.465 C 83.98 210.465 78.572 215.872 78.572 222.543 C 78.572 229.214 83.981 234.621 90.65 234.621 L 174.075 234.621 C 180.746 234.621 186.153 229.214 186.153 222.543 C 186.153 215.872 180.745 210.465 174.075 210.465 Z " fill="rgb(255,255,255)"/></g></g><g><g><path d=" M 306.837 285.53 C 300.171 285.53 294.759 290.941 294.759 297.608 C 294.759 304.275 300.171 309.686 306.837 309.686 C 313.505 309.686 318.915 304.275 318.915 297.608 C 318.915 290.941 313.505 285.53 306.837 285.53 Z " fill="rgb(255,255,255)"/></g></g><g><g><path d=" M 419.079 285.53 C 412.412 285.53 407.001 290.941 407.001 297.608 C 407.001 304.275 412.412 309.686 419.079 309.686 C 425.747 309.686 431.157 304.275 431.157 297.608 C 431.157 290.941 425.746 285.53 419.079 285.53 Z " fill="rgb(255,255,255)"/></g></g></g></svg>