<?xml version="1.0" encoding="UTF-8" standalone="no"?><!-- Generator: Gravit.io --><svg xmlns="http://www.w3.org/2000/svg" xmlns:xlink="http://www.w3.org/1999/xlink" style="isolation:isolate" viewBox="0 0 511.999 511.999" width="511.999pt" height="511.999pt"><defs><clipPath id="_clipPath_fUQBbb0gkV9NtsNo3hjbkmnwLJfa1dKM"><rect width="511.999" height="511.999"/></clipPath></defs><g clip-path="url(#_clipPath_fUQBbb0gkV9NtsNo3hjbkmnwLJfa1dKM)"><clipPath id="_clipPath_AooyT7Ay6xWFVT1SfjpOcNKgYh0vc275"><rect x="0" y="0" width="511.999" height="511.999" transform="matrix(1,0,0,1,0,0)" fill="rgb(255,255,255)"/></clipPath><g clip-path="url(#_clipPath_AooyT7Ay6xWFVT1SfjpOcNKgYh0vc275)"><g><g><g><path d=" M 466.45 49.374 C 459.385 41.066 449.082 36.303 438.183 36.303 L 402.41 36.303 L 402.41 25.113 C 402.41 11.266 391.143 0 377.297 0 L 134.705 0 C 120.857 0 109.593 11.266 109.593 25.112 L 109.593 36.302 L 73.816 36.302 C 62.917 36.302 52.613 41.066 45.549 49.373 C 38.557 57.594 35.535 68.392 37.26 78.997 C 46.66 136.797 83.035 187.86 134.66 215.869 C 139.377 227.21 144.719 237.952 150.668 247.96 C 169.67 279.935 193.293 302.033 219.295 312.72 C 221.93 339.364 204.201 364.605 177.501 370.62 C 177.444 370.633 177.404 370.653 177.348 370.666 C 172.137 371.911 168.258 376.587 168.258 382.179 L 168.258 436.542 L 146.272 436.542 C 126.67 436.542 110.723 452.489 110.723 472.091 L 110.723 500.149 C 110.723 506.694 116.028 511.999 122.573 511.999 L 390.56 511.999 C 397.105 511.999 402.41 506.694 402.41 500.149 L 402.41 472.091 C 402.41 452.489 386.463 436.542 366.861 436.542 L 344.873 436.542 L 344.873 382.18 C 344.873 376.577 340.98 371.894 335.755 370.66 C 335.706 370.648 335.659 370.632 335.61 370.62 C 308.708 364.565 290.946 339.07 293.858 312.226 C 319.406 301.366 342.615 279.465 361.337 247.962 C 367.286 237.953 372.627 227.21 377.345 215.867 C 428.967 187.857 465.34 136.795 474.74 78.997 C 476.465 68.392 473.443 57.595 466.45 49.374 Z  M 60.652 75.192 C 60.036 71.405 61.083 67.688 63.601 64.726 C 66.156 61.722 69.878 60 73.815 60 L 109.592 60 L 109.592 81.802 C 109.592 115.988 113.955 149.102 122.224 179.385 C 89.728 153.706 67.354 116.403 60.652 75.192 Z  M 366.861 460.243 C 373.395 460.243 378.711 465.559 378.711 472.093 L 378.711 488.301 L 134.422 488.301 L 134.422 472.093 C 134.422 465.559 139.738 460.243 146.272 460.243 L 366.861 460.243 L 366.861 460.243 L 366.861 460.243 Z  M 321.173 394.03 L 321.173 436.543 L 191.96 436.543 L 191.96 394.03 L 321.173 394.03 L 321.173 394.03 L 321.173 394.03 Z  M 223.037 370.331 C 225.966 367.107 228.644 363.612 231.039 359.871 C 238.936 347.532 243.081 333.514 243.267 319.197 C 247.476 319.77 251.724 320.077 256.008 320.077 C 260.669 320.077 265.287 319.719 269.86 319.041 C 270.13 338.28 277.618 356.491 290.209 370.33 L 223.037 370.33 L 223.037 370.331 L 223.037 370.331 Z  M 378.709 81.803 C 378.709 140.182 365.303 194.892 340.962 235.852 C 317.77 274.882 287.598 296.377 256.006 296.377 C 224.409 296.377 194.235 274.883 171.04 235.854 C 146.698 194.893 133.292 140.183 133.292 81.805 L 133.292 25.112 C 133.292 24.332 133.926 23.699 134.704 23.699 L 377.295 23.699 C 378.075 23.699 378.709 24.333 378.709 25.112 L 378.709 81.803 L 378.709 81.803 L 378.709 81.803 Z  M 451.348 75.192 C 444.646 116.4 422.274 153.702 389.779 179.383 C 398.047 149.1 402.41 115.988 402.41 81.803 L 402.41 60.001 L 438.183 60.001 C 442.121 60.001 445.843 61.724 448.397 64.727 C 450.915 67.688 451.963 71.405 451.348 75.192 Z " fill="rgb(199,1,1)"/></g></g><g><g><path d=" M 327.941 121.658 C 326.546 117.37 322.838 114.244 318.375 113.594 L 282.617 108.398 L 266.626 75.996 C 264.629 71.952 260.51 69.391 256 69.391 C 251.489 69.391 247.37 71.952 245.374 75.996 L 229.383 108.398 L 193.625 113.594 C 189.161 114.242 185.453 117.369 184.059 121.659 C 182.666 125.95 183.828 130.658 187.058 133.807 L 212.933 159.028 L 206.824 194.641 C 206.061 199.087 207.888 203.579 211.538 206.231 C 215.186 208.882 220.025 209.231 224.017 207.133 L 256 190.32 L 287.982 207.133 C 289.716 208.044 291.609 208.493 293.494 208.493 C 295.95 208.493 298.396 207.73 300.46 206.23 C 304.11 203.578 305.937 199.086 305.174 194.64 L 299.065 159.027 L 324.94 133.806 C 328.172 130.658 329.334 125.949 327.941 121.658 Z  M 278.064 146.405 C 275.271 149.127 273.996 153.049 274.656 156.894 L 277.758 174.984 L 261.513 166.443 C 259.788 165.535 257.893 165.083 255.999 165.083 C 254.105 165.083 252.211 165.537 250.485 166.443 L 234.24 174.984 L 237.342 156.894 C 238.002 153.05 236.727 149.128 233.934 146.405 L 220.793 133.595 L 238.955 130.955 C 242.814 130.395 246.151 127.97 247.877 124.473 L 256 108.015 L 264.122 124.473 C 265.849 127.97 269.184 130.394 273.044 130.955 L 291.206 133.595 L 278.064 146.405 L 278.064 146.405 L 278.064 146.405 Z " fill="rgb(199,1,1)"/></g></g></g></g></g></svg>