<?xml version="1.0" encoding="UTF-8" standalone="no"?><!-- Generator: Gravit.io --><svg xmlns="http://www.w3.org/2000/svg" xmlns:xlink="http://www.w3.org/1999/xlink" style="isolation:isolate" viewBox="0 0 511.998 511.998" width="511.998pt" height="511.998pt"><defs><clipPath id="_clipPath_wdqrEdJjG9YL3tES9OCnyHM5EaVFlDL6"><rect width="511.998" height="511.998"/></clipPath></defs><g clip-path="url(#_clipPath_wdqrEdJjG9YL3tES9OCnyHM5EaVFlDL6)"><g><g><path d=" M 489.713 457.508 C 489.57 452.084 485.129 447.774 479.72 447.774 C 479.676 447.774 479.632 447.774 479.589 447.775 C 477.109 447.807 474.623 447.853 472.14 447.903 C 472.144 447.366 472.149 446.822 472.159 446.255 C 472.594 421.662 462.591 401.437 442.429 386.141 C 425.73 373.472 404.195 365.569 385.195 358.596 C 368.577 352.497 352.81 346.711 344.489 339.317 L 318.847 191.095 L 465.972 16.443 C 468.478 13.468 469.032 9.31 467.391 5.783 C 465.751 2.255 462.213 0 458.324 0 L 272.074 0 C 268.9 0 265.915 1.506 264.03 4.06 L 230.579 49.358 C 230.571 49.369 230.562 49.381 230.554 49.392 L 181.234 116.179 C 179.219 111.481 177.57 106.755 176.326 102.063 C 175.387 98.52 172.585 95.774 169.023 94.908 C 165.459 94.042 161.71 95.194 159.25 97.91 L 54.254 213.771 L 24.186 243.405 C 22.278 245.285 21.205 247.853 21.206 250.532 C 21.208 253.211 22.284 255.778 24.194 257.656 L 147.92 379.336 L 103.618 379.336 C 98.096 379.336 93.618 383.813 93.618 389.336 C 93.618 394.859 98.096 399.336 103.618 399.336 L 168.256 399.336 L 199.299 429.866 L 152.585 429.866 C 147.063 429.866 142.585 434.343 142.585 439.866 C 142.585 445.389 147.063 449.866 152.585 449.866 L 219.636 449.866 L 237.31 467.248 C 237.555 467.489 237.812 467.717 238.081 467.931 C 286.975 506.988 347.259 511.997 394.316 511.998 L 394.325 511.998 C 417.597 511.998 440.892 510.583 463.418 509.214 C 469.448 508.848 475.431 508.485 481.353 508.152 C 486.752 507.849 490.932 503.308 490.789 497.902 L 489.713 457.508 L 489.713 457.508 Z  M 277.121 20 L 436.825 20 L 358.551 112.918 C 339.65 101.692 317.517 89.095 296.025 76.863 C 280.599 68.083 265.858 59.693 253.241 52.338 L 277.121 20 L 277.121 20 Z  M 241.29 68.52 C 254.407 76.189 269.892 85.002 286.132 94.245 C 306.471 105.821 327.378 117.722 345.488 128.426 L 303.505 178.263 C 302.077 178.28 300.641 178.293 299.221 178.311 C 266.948 178.724 239.073 179.081 217.239 162.876 C 207.908 155.951 199.057 146.369 191.803 135.534 L 241.29 68.52 L 241.29 68.52 Z  M 162.747 123.834 C 163.764 126.216 164.859 128.588 166.032 130.944 C 167.38 133.649 168.836 136.319 170.37 138.95 C 170.738 139.861 171.243 140.72 171.881 141.502 C 180.938 156.323 192.736 169.6 205.319 178.937 C 232.575 199.167 265.074 198.751 299.477 198.31 C 299.583 198.309 299.691 198.308 299.797 198.306 L 307.755 244.309 L 262.034 244.309 C 256.512 244.309 252.034 248.786 252.034 254.309 C 252.034 259.832 256.511 264.309 262.034 264.309 L 311.216 264.309 L 315.175 287.195 L 277.595 287.195 C 272.073 287.195 267.595 291.672 267.595 297.195 C 267.595 302.718 272.073 307.195 277.595 307.195 L 318.635 307.195 L 325.327 345.879 C 325.653 347.764 326.513 349.515 327.804 350.926 C 338.708 362.84 357.942 369.898 378.304 377.371 C 414.973 390.828 452.89 404.744 452.163 445.901 C 452.147 446.794 452.141 447.632 452.138 448.441 C 450.18 448.502 448.22 448.564 446.283 448.626 C 432.636 449.062 418.523 449.515 404.95 449.515 C 346.079 449.515 298.549 441.02 257.936 399.563 C 257.89 399.516 257.844 399.47 257.798 399.425 L 75.337 220.29 L 162.747 123.834 L 162.747 123.834 Z  M 462.204 489.253 C 439.974 490.603 416.99 492 394.323 492 L 394.315 492 C 350.651 491.999 294.939 487.515 250.959 452.623 L 45.459 250.52 L 61.489 234.722 L 243.718 413.63 C 291.878 462.742 349.669 469.515 404.948 469.515 C 418.842 469.515 433.116 469.058 446.921 468.616 C 454.491 468.374 462.242 468.126 469.984 467.951 L 470.537 488.75 C 467.77 488.915 464.992 489.083 462.204 489.253 Z " fill="rgb(199,1,1)"/></g></g><g><g><path d=" M 72.597 379.337 L 72.085 379.337 C 66.563 379.337 62.085 383.814 62.085 389.337 C 62.085 394.86 66.563 399.337 72.085 399.337 L 72.597 399.337 C 78.119 399.337 82.597 394.86 82.597 389.337 C 82.597 383.814 78.12 379.337 72.597 379.337 Z " fill="rgb(199,1,1)"/></g></g><g><g><path d=" M 122.634 429.867 L 122.121 429.867 C 116.599 429.867 112.121 434.344 112.121 439.867 C 112.121 445.39 116.599 449.867 122.121 449.867 L 122.634 449.867 C 128.157 449.867 132.634 445.39 132.634 439.867 C 132.634 434.344 128.157 429.867 122.634 429.867 Z " fill="rgb(199,1,1)"/></g></g></g></svg>